<svg width="36" height="36" viewBox="0 0 36 36" fill="none" xmlns="http://www.w3.org/2000/svg">
<g clip-path="url(#clip0_806_8537)">
<path d="M18 0C8.05982 0 0 8.05982 0 18C0 27.9402 8.05982 36 18 36C27.9402 36 36 27.9402 36 18C36 8.05982 27.9402 0 18 0ZM18 32.9464C9.74732 32.9464 3.05357 26.2527 3.05357 18C3.05357 9.74732 9.74732 3.05357 18 3.05357C26.2527 3.05357 32.9464 9.74732 32.9464 18C32.9464 26.2527 26.2527 32.9464 18 32.9464ZM25.9714 9.31741C25.8141 9.25592 25.6461 9.22605 25.4772 9.2295C25.3083 9.23294 25.1418 9.26964 24.9871 9.3375L14.0987 14.1027L9.3375 24.9911C9.19286 25.3205 9.19286 25.6942 9.3375 26.0237C9.47411 26.3371 9.72723 26.5821 10.0487 26.7067C10.2013 26.767 10.358 26.7951 10.5187 26.7951C10.6955 26.7951 10.8683 26.7589 11.033 26.6866L21.9214 21.9214L26.6826 11.033C26.7521 10.8741 26.7887 10.7028 26.7904 10.5294C26.792 10.356 26.7587 10.184 26.6923 10.0238C26.6258 9.86361 26.5278 9.71847 26.4039 9.59708C26.28 9.47569 26.1329 9.38057 25.9714 9.31741ZM20.6036 18.9L21.6562 19.9527L19.9527 21.6562L18.9 20.6036L12.6964 23.3196L15.4085 17.1161L14.3839 16.0875L16.0875 14.3839L17.1121 15.4085L23.3196 12.6964L20.6036 18.9ZM16.0875 14.3839L14.3839 16.0875L15.4085 17.1161L18.9 20.6036L19.9527 21.6562L21.6562 19.9527L20.6036 18.9L17.1161 15.4085L16.0875 14.3839Z" fill="#1890FF"/>
</g>
<defs>
<clipPath id="clip0_806_8537">
<rect width="36" height="36" fill="white"/>
</clipPath>
</defs>
</svg>
