<svg width="36" height="36" viewBox="0 0 36 36" fill="none" xmlns="http://www.w3.org/2000/svg">
<mask id="mask0_181448_95841" style="mask-type:alpha" maskUnits="userSpaceOnUse" x="0" y="0" width="36" height="36">
<rect width="36" height="36" fill="#D9D9D9"/>
</mask>
<g mask="url(#mask0_181448_95841)">
<path d="M10.0249 31.5C9.33737 31.5 8.74888 31.2552 8.25938 30.7657C7.76988 30.276 7.52513 29.6874 7.52513 28.9999V8.25H6V5.74988H13.2V4.5H22.8V5.74988H30V8.25H28.4749V28.9999C28.4749 29.6749 28.227 30.2604 27.7313 30.7564C27.2355 31.2521 26.6501 31.5 25.9751 31.5H10.0249ZM25.9751 8.25H10.0249V28.9999H25.9751V8.25ZM13.6751 25.8499H16.1749V11.3749H13.6751V25.8499ZM19.8251 25.8499H22.3249V11.3749H19.8251V25.8499Z" fill="#1890FF"/>
</g>
</svg>
