<svg width="36" height="36" viewBox="0 0 36 36" fill="none" xmlns="http://www.w3.org/2000/svg">
<path d="M31.7642 9.02411L23.1178 0.377679C22.8767 0.136607 22.5513 0 22.2098 0H5.14192C4.43075 0 3.8562 0.574554 3.8562 1.28571V34.7143C3.8562 35.4254 4.43075 36 5.14192 36H30.8562C31.5674 36 32.1419 35.4254 32.1419 34.7143V9.93616C32.1419 9.59464 32.0053 9.26518 31.7642 9.02411ZM29.1767 10.5268H21.6151V2.96518L29.1767 10.5268ZM29.2491 33.1071H6.74906V2.89286H18.883V11.5714C18.883 12.019 19.0608 12.4482 19.3772 12.7647C19.6937 13.0811 20.1229 13.2589 20.5705 13.2589H29.2491V33.1071ZM17.6776 22.2589H10.2848C10.108 22.2589 9.96334 22.4036 9.96334 22.5804V24.5089C9.96334 24.6857 10.108 24.8304 10.2848 24.8304H17.6776C17.8544 24.8304 17.9991 24.6857 17.9991 24.5089V22.5804C17.9991 22.4036 17.8544 22.2589 17.6776 22.2589ZM9.96334 17.1161V19.0446C9.96334 19.2214 10.108 19.3661 10.2848 19.3661H25.7133C25.8901 19.3661 26.0348 19.2214 26.0348 19.0446V17.1161C26.0348 16.9393 25.8901 16.7946 25.7133 16.7946H10.2848C10.108 16.7946 9.96334 16.9393 9.96334 17.1161Z" fill="#1890FF"/>
</svg>
