<svg width="36" height="36" viewBox="0 0 36 36" fill="none" xmlns="http://www.w3.org/2000/svg">
<mask id="mask0_181448_95839" style="mask-type:alpha" maskUnits="userSpaceOnUse" x="0" y="0" width="36" height="36">
<rect width="36" height="36" fill="#D9D9D9"/>
</mask>
<g mask="url(#mask0_181448_95839)">
<path d="M10.5 31.5L8.72513 29.7251L11.6625 26.7499C8.84575 26.7499 6.44787 25.7561 4.46887 23.7686C2.48962 21.7811 1.5 19.3583 1.5 16.5C1.5 13.575 2.51875 11.0937 4.55625 9.05625C6.59375 7.01875 9.075 6 12 6H16.5V8.50012H12C9.775 8.50012 7.88538 9.27713 6.33113 10.8311C4.77713 12.3854 4.00012 14.275 4.00012 16.5C4.00012 18.6167 4.75013 20.4168 6.25013 21.9C7.75013 23.3833 9.56263 24.1666 11.6876 24.2501L8.72513 21.2876L10.5 19.5L16.5 25.5L10.5 31.5ZM19.5 30V19.5H33V30H19.5ZM19.5 16.5V6H33V16.5H19.5ZM22.0001 13.9999H30.4999V8.50012H22.0001V13.9999Z" fill="#1890FF"/>
</g>
</svg>
