<svg width="36" height="36" viewBox="0 0 36 36" fill="none" xmlns="http://www.w3.org/2000/svg">
<mask id="mask0_181448_222" style="mask-type:alpha" maskUnits="userSpaceOnUse" x="0" y="0" width="36" height="36">
<rect width="36" height="36" fill="#D9D9D9"/>
</mask>
<g mask="url(#mask0_181448_222)">
<path d="M5.77792 32C5.02792 32 4.37736 31.7246 3.82625 31.1737C3.27542 30.6226 3 29.9721 3 29.2221V22.2221H5.77792V29.2221H12.7779V32H5.77792ZM30.2221 32H23.2221V29.2221H30.2221V22.2221H33V29.2221C33 29.9721 32.7246 30.6226 32.1737 31.1737C31.6226 31.7246 30.9721 32 30.2221 32ZM3 6.77792C3 6.02792 3.27542 5.37736 3.82625 4.82625C4.37736 4.27542 5.02792 4 5.77792 4H12.7779V6.77792H5.77792V13.7779H3V6.77792ZM33 6.77792V13.7779H30.2221V6.77792H23.2221V4H30.2221C30.9721 4 31.6226 4.27542 32.1737 4.82625C32.7246 5.37736 33 6.02792 33 6.77792ZM19.1596 27.3533C19.4976 27.015 19.6667 26.6007 19.6667 26.1104C19.6667 25.6201 19.4974 25.206 19.1588 24.8679C18.8204 24.5301 18.4061 24.3613 17.9158 24.3613C17.4256 24.3613 17.0115 24.5304 16.6738 24.8687C16.3357 25.2074 16.1667 25.6218 16.1667 26.1121C16.1667 26.6021 16.336 27.0161 16.6746 27.3542C17.0129 27.6922 17.4272 27.8612 17.9175 27.8612C18.4078 27.8612 18.8218 27.6919 19.1596 27.3533ZM16.5 21.625H19.0971C19.0971 20.7731 19.2221 20.0786 19.4721 19.5417C19.7221 19.0047 20.2129 18.3704 20.9446 17.6388C21.8613 16.7221 22.4978 15.9282 22.8542 15.2571C23.2106 14.5857 23.3888 13.8465 23.3888 13.0396C23.3888 11.5874 22.8785 10.4075 21.8579 9.5C20.8374 8.5925 19.5421 8.13875 17.9721 8.13875C16.5832 8.13875 15.3796 8.4768 14.3613 9.15292C13.3426 9.82875 12.6018 10.8056 12.1388 12.0833L14.5279 13.0696C14.8518 12.3474 15.3171 11.7663 15.9238 11.3263C16.5301 10.8865 17.2132 10.6667 17.9729 10.6667C18.8201 10.6667 19.4994 10.8958 20.0108 11.3542C20.5222 11.8125 20.7779 12.4028 20.7779 13.125C20.7779 13.6806 20.6321 14.2107 20.3404 14.7154C20.0487 15.2199 19.5557 15.7915 18.8613 16.4304C17.9446 17.2915 17.3218 18.074 16.9929 18.7779C16.6643 19.4815 16.5 20.4306 16.5 21.625Z" fill="#1890FF"/>
</g>
</svg>
