<svg width="36" height="36" viewBox="0 0 36 36" fill="none" xmlns="http://www.w3.org/2000/svg">
<path d="M34.7143 3.84961H1.28571C0.574554 3.84961 0 4.42416 0 5.13532V30.8496C0 31.5608 0.574554 32.1353 1.28571 32.1353H34.7143C35.4254 32.1353 36 31.5608 36 30.8496V5.13532C36 4.42416 35.4254 3.84961 34.7143 3.84961ZM33.1071 29.2425H2.89286V27.6393L8.45759 21.038L14.4884 28.1898L23.8701 17.0684L33.1071 28.021V29.2425ZM33.1071 24.0273L24.1152 13.3639C23.9866 13.2112 23.7536 13.2112 23.625 13.3639L14.4884 24.196L8.70268 17.3376C8.57411 17.1849 8.34107 17.1849 8.2125 17.3376L2.89286 23.6456V6.74247H33.1071V24.0273Z" fill="#1890FF"/>
</svg>
