<svg width="36" height="36" viewBox="0 0 36 36" fill="none" xmlns="http://www.w3.org/2000/svg">
<path d="M30.5445 25.5555C29.5388 24.549 28.3637 23.7276 27.073 23.1287C28.8931 21.6542 30.0543 19.4042 30.0543 16.881C30.0543 12.4292 26.3418 8.77695 21.89 8.84525C17.5065 8.91356 13.9748 12.4854 13.9748 16.881C13.9748 19.4042 15.14 21.6542 16.9561 23.1287C15.6652 23.7271 14.49 24.5486 13.4847 25.5555C11.2909 27.7533 10.0454 30.6542 9.96501 33.7479C9.96394 33.7908 9.97146 33.8335 9.98714 33.8734C10.0028 33.9133 10.0263 33.9497 10.0563 33.9804C10.0862 34.0111 10.122 34.0355 10.1616 34.0522C10.2011 34.0688 10.2435 34.0774 10.2864 34.0774H12.5364C12.7092 34.0774 12.8539 33.9408 12.8579 33.768C12.9342 31.4377 13.8784 29.256 15.5378 27.6006C16.3869 26.747 17.3969 26.0702 18.5094 25.6095C19.6218 25.1488 20.8145 24.9133 22.0186 24.9167C24.4655 24.9167 26.7677 25.8689 28.4994 27.6006C30.1547 29.256 31.0989 31.4377 31.1793 33.768C31.1833 33.9408 31.328 34.0774 31.5007 34.0774H33.7507C33.7936 34.0774 33.8361 34.0688 33.8756 34.0522C33.9151 34.0355 33.9509 34.0111 33.9809 33.9804C34.0109 33.9497 34.0344 33.9133 34.05 33.8734C34.0657 33.8335 34.0732 33.7908 34.0722 33.7479C33.9918 30.6542 32.7463 27.7533 30.5445 25.5555ZM22.0186 22.0238C20.6445 22.0238 19.3507 21.4894 18.3824 20.5171C17.8965 20.035 17.5126 19.4599 17.2538 18.8262C16.9949 18.1926 16.8663 17.5132 16.8757 16.8287C16.8878 15.5109 17.4141 14.2372 18.3342 13.293C19.2985 12.3046 20.5882 11.7542 21.9664 11.7381C23.3284 11.7261 24.6503 12.2564 25.6226 13.2086C26.619 14.185 27.1655 15.4908 27.1655 16.881C27.1655 18.2551 26.6311 19.5448 25.6588 20.5171C25.1817 20.9964 24.6144 21.3764 23.9896 21.635C23.3647 21.8936 22.6948 22.0258 22.0186 22.0238ZM11.9539 17.9417C11.9177 17.5921 11.8976 17.2386 11.8976 16.881C11.8976 16.2421 11.9579 15.6194 12.0704 15.0127C12.0985 14.868 12.0222 14.7194 11.8896 14.6591C11.3431 14.414 10.8409 14.0765 10.407 13.6506C9.89567 13.1548 9.49331 12.5579 9.22559 11.898C8.95786 11.238 8.83065 10.5295 8.85207 9.81757C8.88823 8.52784 9.40653 7.30239 10.3105 6.37829C11.303 5.36177 12.6369 4.8073 14.0552 4.82338C15.3369 4.83543 16.5744 5.32963 17.5105 6.20552C17.828 6.50284 18.1012 6.8323 18.3302 7.18588C18.4105 7.31043 18.5672 7.36266 18.7039 7.31445C19.411 7.06936 20.1583 6.89659 20.9257 6.81623C21.1507 6.79213 21.2793 6.55105 21.1789 6.35016C19.873 3.76668 17.2052 1.98275 14.1195 1.93454C9.66367 1.86623 5.95117 5.51847 5.95117 9.96623C5.95117 12.4894 7.11233 14.7394 8.93242 16.214C7.65475 16.8046 6.47751 17.6203 5.45698 18.6408C3.25519 20.8386 2.00966 23.7394 1.9293 26.8372C1.92823 26.8801 1.93575 26.9228 1.95142 26.9627C1.96709 27.0026 1.9906 27.039 2.02055 27.0697C2.05051 27.1004 2.08631 27.1248 2.12584 27.1415C2.16537 27.1581 2.20783 27.1667 2.25073 27.1667H4.50475C4.67751 27.1667 4.82216 27.0301 4.82617 26.8573C4.90251 24.5269 5.84671 22.3453 7.50609 20.6899C8.68734 19.5086 10.1338 18.689 11.7128 18.2912C11.8695 18.2511 11.9739 18.1024 11.9539 17.9417Z" fill="#1890FF"/>
</svg>
