<svg width="36" height="36" viewBox="0 0 36 36" fill="none" xmlns="http://www.w3.org/2000/svg">
<g clip-path="url(#clip0_80_327)">
<path d="M34.5853 22.5743L31.9536 20.3243C32.0781 19.5609 32.1424 18.7815 32.1424 18.002C32.1424 17.2225 32.0781 16.4431 31.9536 15.6797L34.5853 13.4297C34.7838 13.2598 34.9258 13.0334 34.9926 12.7808C35.0593 12.5282 35.0476 12.2612 34.9589 12.0154L34.9228 11.9109C34.1983 9.88604 33.1134 8.00894 31.7206 6.37031L31.6482 6.28594C31.4793 6.08726 31.2541 5.94445 31.0023 5.87631C30.7506 5.80817 30.4841 5.81791 30.238 5.90424L26.9714 7.0654C25.7661 6.07701 24.4201 5.29754 22.9656 4.75112L22.3348 1.33594C22.2872 1.07896 22.1626 0.842554 21.9774 0.658116C21.7923 0.473678 21.5554 0.349942 21.2982 0.303348L21.1897 0.283259C19.0964 -0.0944196 16.8947 -0.0944196 14.8014 0.283259L14.6929 0.303348C14.4357 0.349942 14.1988 0.473678 14.0137 0.658116C13.8285 0.842554 13.7039 1.07896 13.6563 1.33594L13.0214 4.76719C11.5786 5.31373 10.2349 6.09278 9.04377 7.07344L5.75314 5.90424C5.50711 5.81722 5.24042 5.80713 4.98852 5.87531C4.73662 5.94349 4.51143 6.08671 4.34287 6.28594L4.27055 6.37031C2.87935 8.0101 1.79465 9.88689 1.06832 11.9109L1.03216 12.0154C0.851354 12.5176 1.00002 13.0801 1.40582 13.4297L4.06966 15.7038C3.9451 16.4592 3.88484 17.2306 3.88484 17.998C3.88484 18.7694 3.9451 19.5408 4.06966 20.2922L1.40582 22.5663C1.20732 22.7362 1.06525 22.9626 0.998504 23.2152C0.931758 23.4678 0.943496 23.7348 1.03216 23.9806L1.06832 24.085C1.79555 26.11 2.87234 27.9783 4.27055 29.6257L4.34287 29.71C4.51184 29.9087 4.73704 30.0515 4.98879 30.1197C5.24054 30.1878 5.50703 30.1781 5.75314 30.0917L9.04377 28.9225C10.2411 29.9069 11.579 30.6864 13.0214 31.2288L13.6563 34.66C13.7039 34.917 13.8285 35.1534 14.0137 35.3379C14.1988 35.5223 14.4357 35.646 14.6929 35.6926L14.8014 35.7127C16.9139 36.0924 19.0772 36.0924 21.1897 35.7127L21.2982 35.6926C21.5554 35.646 21.7923 35.5223 21.9774 35.3379C22.1626 35.1534 22.2872 34.917 22.3348 34.66L22.9656 31.2449C24.4195 30.6999 25.7731 29.9179 26.9714 28.9306L30.238 30.0917C30.484 30.1788 30.7507 30.1889 31.0026 30.1207C31.2545 30.0525 31.4797 29.9093 31.6482 29.71L31.7206 29.6257C33.1188 27.9743 34.1955 26.11 34.9228 24.085L34.9589 23.9806C35.1397 23.4864 34.9911 22.9239 34.5853 22.5743ZM29.1009 16.1538C29.2014 16.7605 29.2536 17.3833 29.2536 18.006C29.2536 18.6288 29.2014 19.2516 29.1009 19.8583L28.8357 21.4694L31.8371 24.0368C31.3821 25.085 30.8077 26.0773 30.1255 26.994L26.3969 25.6721L25.1353 26.7087C24.175 27.4962 23.1063 28.115 21.9491 28.5489L20.4183 29.1234L19.6991 33.0208C18.5644 33.1493 17.4187 33.1493 16.2839 33.0208L15.5647 29.1154L14.046 28.5328C12.9009 28.0989 11.8362 27.4801 10.8839 26.6967L9.62234 25.656L5.86966 26.99C5.18662 26.0699 4.61609 25.0775 4.15805 24.0328L7.19153 21.4413L6.93037 19.8342C6.83394 19.2355 6.78171 18.6167 6.78171 18.006C6.78171 17.3913 6.82993 16.7766 6.93037 16.1779L7.19153 14.5708L4.15805 11.9792C4.61207 10.9306 5.18662 9.94219 5.86966 9.0221L9.62234 10.356L10.8839 9.3154C11.8362 8.53192 12.9009 7.91317 14.046 7.47924L15.5688 6.90469L16.288 2.99933C17.417 2.87076 18.5701 2.87076 19.7031 2.99933L20.4223 6.89665L21.9531 7.47121C23.1063 7.90513 24.179 8.52388 25.1393 9.31138L26.4009 10.348L30.1295 9.02612C30.8125 9.94621 31.3831 10.9386 31.8411 11.9833L28.8397 14.5507L29.1009 16.1538ZM17.9996 10.5328C14.0942 10.5328 10.9281 13.6989 10.9281 17.6042C10.9281 21.5096 14.0942 24.6757 17.9996 24.6757C21.9049 24.6757 25.071 21.5096 25.071 17.6042C25.071 13.6989 21.9049 10.5328 17.9996 10.5328ZM21.1817 20.7864C20.7643 21.205 20.2683 21.5369 19.7222 21.763C19.1761 21.9892 18.5907 22.1052 17.9996 22.1042C16.7982 22.1042 15.6692 21.6342 14.8174 20.7864C14.3989 20.369 14.0669 19.873 13.8408 19.3269C13.6146 18.7808 13.4986 18.1953 13.4996 17.6042C13.4996 16.4029 13.9697 15.2739 14.8174 14.4221C15.6692 13.5703 16.7982 13.1042 17.9996 13.1042C19.2009 13.1042 20.3299 13.5703 21.1817 14.4221C21.6003 14.8395 21.9322 15.3355 22.1584 15.8816C22.3845 16.4277 22.5005 17.0131 22.4996 17.6042C22.4996 18.8056 22.0295 19.9346 21.1817 20.7864Z" fill="#1890FF"/>
</g>
<defs>
<clipPath id="clip0_80_327">
<rect width="36" height="36" fill="white"/>
</clipPath>
</defs>
</svg>
