<svg width="36" height="36" viewBox="0 0 36 36" fill="none" xmlns="http://www.w3.org/2000/svg">
<mask id="mask0_181448_95837" style="mask-type:alpha" maskUnits="userSpaceOnUse" x="0" y="0" width="36" height="36">
<rect width="36" height="36" fill="#D9D9D9"/>
</mask>
<g mask="url(#mask0_181448_95837)">
<path d="M30.2127 33.7879L27.9252 31.5004H7.00015C6.32515 31.5004 5.73965 31.2525 5.24365 30.7567C4.7479 30.2607 4.50002 29.6752 4.50002 29.0002V8.07524L2.21252 5.78774L4.00015 4.00049L31.9999 32.0002L30.2127 33.7879ZM7.00015 29.0002H25.425L17.1124 20.6629L14.4 23.3752L12.6499 21.6004L15.3375 18.9127L7.00015 10.5754V29.0002ZM10.575 7.00049L8.0749 4.50036H17.475V7.00049H10.575ZM20.6876 17.088L18.9124 15.3379L27.2502 7.00049H19.9752V4.50036H31.5V16.0252H28.9999V8.77536L20.6876 17.088ZM31.5 27.9255L28.9999 25.4254V18.5254H31.5V27.9255Z" fill="#1890FF"/>
</g>
</svg>
