<svg width="36" height="36" viewBox="0 0 36 36" fill="none" xmlns="http://www.w3.org/2000/svg">
<mask id="mask0_181448_95840" style="mask-type:alpha" maskUnits="userSpaceOnUse" x="0" y="0" width="36" height="36">
<rect width="36" height="36" fill="#D9D9D9"/>
</mask>
<g mask="url(#mask0_181448_95840)">
<path d="M9.975 28.5V25.9999H21.2749C22.9666 25.9999 24.4271 25.4457 25.6564 24.3375C26.8854 23.2292 27.4999 21.8501 27.4999 20.2001C27.4999 18.5501 26.8854 17.1709 25.6564 16.0624C24.4271 14.9541 22.9666 14.4 21.2749 14.4H10.7501L14.8999 18.5501L13.1501 20.2999L6 13.1501L13.1501 6L14.8999 7.75012L10.7501 11.8999H21.2501C23.6416 11.8999 25.6979 12.6958 27.4189 14.2875C29.1396 15.8793 30 17.8501 30 20.2001C30 22.5501 29.1396 24.5209 27.4189 26.1124C25.6979 27.7041 23.6416 28.5 21.2501 28.5H9.975Z" fill="#1890FF"/>
</g>
</svg>
